<svg width="27" height="27" viewBox="0 0 27 27" fill="none" xmlns="http://www.w3.org/2000/svg">
<path d="M13.5 10.276C12.8624 10.276 12.239 10.4651 11.7088 10.8193C11.1787 11.1736 10.7654 11.6771 10.5214 12.2662C10.2774 12.8553 10.2135 13.5036 10.3379 14.129C10.4623 14.7544 10.7694 15.3288 11.2203 15.7797C11.6712 16.2306 12.2456 16.5377 12.871 16.6621C13.4964 16.7864 14.1447 16.7226 14.7338 16.4786C15.3229 16.2346 15.8264 15.8213 16.1807 15.2912C16.5349 14.761 16.724 14.1376 16.724 13.5C16.724 13.0766 16.6406 12.6574 16.4786 12.2662C16.3166 11.8751 16.0791 11.5197 15.7797 11.2203C15.4803 10.9209 15.1249 10.6834 14.7338 10.5214C14.3426 10.3594 13.9234 10.276 13.5 10.276ZM26.409 7.091C26.4022 6.08709 26.2173 5.09234 25.863 4.153C25.6021 3.46564 25.1983 2.84142 24.6785 2.32154C24.1586 1.80166 23.5344 1.39793 22.847 1.137C21.9077 0.782703 20.9129 0.597839 19.909 0.591C18.232 0.5 17.738 0.5 13.5 0.5C9.262 0.5 8.768 0.5 7.091 0.591C6.08709 0.597839 5.09234 0.782703 4.153 1.137C3.46564 1.39793 2.84142 1.80166 2.32154 2.32154C1.80166 2.84142 1.39793 3.46564 1.137 4.153C0.782703 5.09234 0.597839 6.08709 0.591 7.091C0.5 8.768 0.5 9.262 0.5 13.5C0.5 17.738 0.5 18.232 0.591 19.909C0.604993 20.9164 0.789607 21.9142 1.137 22.86C1.39678 23.5442 1.80017 24.1648 2.32 24.68C2.83765 25.203 3.46321 25.6067 4.153 25.863C5.09234 26.2173 6.08709 26.4022 7.091 26.409C8.768 26.5 9.262 26.5 13.5 26.5C17.738 26.5 18.232 26.5 19.909 26.409C20.9129 26.4022 21.9077 26.2173 22.847 25.863C23.5368 25.6067 24.1623 25.203 24.68 24.68C25.1998 24.1648 25.6032 23.5442 25.863 22.86C26.217 21.916 26.4018 20.9171 26.409 19.909C26.5 18.232 26.5 17.738 26.5 13.5C26.5 9.262 26.5 8.768 26.409 7.091ZM23.107 17.491C23.0653 18.2932 22.8941 19.0834 22.6 19.831C22.3476 20.4546 21.9724 21.0211 21.4968 21.4968C21.0211 21.9724 20.4546 22.3476 19.831 22.6C19.0764 22.8777 18.2817 23.0313 17.478 23.055H9.522C8.71825 23.0313 7.92363 22.8777 7.169 22.6C6.52433 22.3604 5.94216 21.9782 5.466 21.482C4.99497 21.0156 4.6312 20.4522 4.4 19.831C4.12122 19.0772 3.97179 18.2816 3.958 17.478V13.5V9.522C3.97179 8.71837 4.12122 7.92285 4.4 7.169C4.63957 6.52433 5.02176 5.94216 5.518 5.466C5.98643 4.99751 6.54924 4.63412 7.169 4.4C7.92363 4.12233 8.71825 3.96867 9.522 3.945H17.478C18.2817 3.96867 19.0764 4.12233 19.831 4.4C20.4757 4.63957 21.0578 5.02176 21.534 5.518C22.005 5.98437 22.3688 6.54777 22.6 7.169C22.8777 7.92363 23.0313 8.71825 23.055 9.522V13.5C23.055 16.178 23.146 16.451 23.107 17.478V17.491ZM21.027 7.819C20.8722 7.39908 20.6282 7.01774 20.3117 6.70128C19.9953 6.38482 19.6139 6.14078 19.194 5.986C18.6174 5.78614 18.0101 5.68933 17.4 5.7H9.6C8.98675 5.70599 8.37939 5.82042 7.806 6.038C7.39251 6.18575 7.0152 6.41983 6.69916 6.72466C6.38312 7.0295 6.13558 7.39811 5.973 7.806C5.78421 8.38498 5.69198 8.99107 5.7 9.6V17.4C5.71289 18.0126 5.8271 18.6187 6.038 19.194C6.19278 19.6139 6.43682 19.9953 6.75328 20.3117C7.06974 20.6282 7.45108 20.8722 7.871 21.027C8.42567 21.231 9.00935 21.3451 9.6 21.365H17.4C18.0133 21.359 18.6206 21.2446 19.194 21.027C19.6139 20.8722 19.9953 20.6282 20.3117 20.3117C20.6282 19.9953 20.8722 19.6139 21.027 19.194C21.2446 18.6206 21.359 18.0133 21.365 17.4V13.5V9.6C21.3654 8.98614 21.2507 8.37764 21.027 7.806V7.819ZM13.5 18.466C12.8485 18.466 12.2033 18.3375 11.6016 18.0877C10.9998 17.838 10.4532 17.472 9.9931 17.0107C9.533 16.5494 9.16843 16.0019 8.92029 15.3994C8.67214 14.797 8.54529 14.1515 8.547 13.5C8.547 12.5173 8.83858 11.5566 9.38483 10.7397C9.93108 9.92276 10.7074 9.28626 11.6156 8.91078C12.5238 8.5353 13.5229 8.43772 14.4866 8.63039C15.4503 8.82306 16.3351 9.29732 17.0291 9.99313C17.7231 10.6889 18.195 11.575 18.3852 12.5392C18.5753 13.5033 18.4751 14.5022 18.0972 15.4094C17.7194 16.3166 17.0809 17.0913 16.2625 17.6354C15.4441 18.1795 14.4827 18.4686 13.5 18.466ZM18.7 9.509C18.4126 9.47858 18.1467 9.34289 17.9534 9.12806C17.7601 8.91324 17.6532 8.63448 17.6532 8.3455C17.6532 8.05652 17.7601 7.77776 17.9534 7.56294C18.1467 7.34811 18.4126 7.21242 18.7 7.182C18.9874 7.21242 19.2533 7.34811 19.4466 7.56294C19.6399 7.77776 19.7468 8.05652 19.7468 8.3455C19.7468 8.63448 19.6399 8.91324 19.4466 9.12806C19.2533 9.34289 18.9874 9.47858 18.7 9.509Z" fill="#FBF2DA"/>
</svg>
