<svg width="27" height="27" viewBox="0 0 27 27" fill="none" xmlns="http://www.w3.org/2000/svg">
<path d="M13.5 0.5C6.31813 0.5 0.5 6.31897 0.5 13.5C0.5 20.681 6.31897 26.5 13.5 26.5C20.6819 26.5 26.5 20.681 26.5 13.5C26.5 6.31897 20.681 0.5 13.5 0.5ZM19.8851 9.40626L17.7514 19.4607C17.5937 20.1736 17.1694 20.3464 16.5772 20.0109L13.3272 17.6155L11.7597 19.1252C11.5869 19.298 11.4401 19.4448 11.1046 19.4448L11.3353 16.1369L17.3581 10.6954C17.6206 10.4647 17.3002 10.3339 16.9538 10.5645L9.51026 15.2504L6.30219 14.249C5.60523 14.0292 5.58929 13.552 6.44897 13.2165L18.9826 8.38303C19.5647 8.17335 20.073 8.52477 19.8843 9.40542L19.8851 9.40626Z" fill="#FBF2DA"/>
</svg>
