<svg width="27" height="27" viewBox="0 0 27 27" fill="none" xmlns="http://www.w3.org/2000/svg">
<path d="M23.6111 0.5H3.38889C1.8 0.5 0.5 1.8 0.5 3.38889V23.6111C0.5 25.2014 1.8 26.5 3.38889 26.5H13.5V16.3889H10.6111V12.8139H13.5V9.85278C13.5 6.727 15.2507 4.53144 18.9398 4.53144L21.5441 4.53433V8.29711H19.8151C18.3793 8.29711 17.8333 9.37467 17.8333 10.3742V12.8153H21.5427L20.7222 16.3889H17.8333V26.5H23.6111C25.2 26.5 26.5 25.2014 26.5 23.6111V3.38889C26.5 1.8 25.2 0.5 23.6111 0.5Z" fill="#FBF2DA"/>
</svg>
