<svg width="32" height="32" viewBox="0 0 32 32" fill="none" xmlns="http://www.w3.org/2000/svg">
<path d="M28.4444 0H3.55556C1.6 0 0 1.6 0 3.55556V28.4444C0 30.4 1.6 32 3.55556 32H28.4444C30.4 32 32 30.4 32 28.4444V3.55556C32 1.6 30.4 0 28.4444 0ZM13.7067 23.6267C13.5422 23.7915 13.3468 23.9222 13.1318 24.0114C12.9167 24.1006 12.6862 24.1466 12.4533 24.1466C12.2205 24.1466 11.99 24.1006 11.7749 24.0114C11.5598 23.9222 11.3645 23.7915 11.2 23.6267L4.81778 17.2444C4.65319 17.0799 4.52263 16.8845 4.43355 16.6694C4.34448 16.4544 4.29863 16.2239 4.29863 15.9911C4.29863 15.7583 4.34448 15.5279 4.43355 15.3128C4.52263 15.0978 4.65319 14.9024 4.81778 14.7378C4.98237 14.5732 5.17776 14.4426 5.39281 14.3536C5.60786 14.2645 5.83835 14.2186 6.07111 14.2186C6.30388 14.2186 6.53436 14.2645 6.74941 14.3536C6.96446 14.4426 7.15985 14.5732 7.32444 14.7378L12.4444 19.8578L24.6756 7.62667C25.008 7.29426 25.4588 7.10752 25.9289 7.10752C26.399 7.10752 26.8498 7.29426 27.1822 7.62667C27.5146 7.95907 27.7014 8.40991 27.7014 8.88C27.7014 9.35009 27.5146 9.80093 27.1822 10.1333L13.7067 23.6267Z" fill="#D46240"/>
</svg>
